<svg version="1" xmlns="http://www.w3.org/2000/svg" width="682.667" height="682.667" viewBox="0 0 512.000000 512.000000"><path d="M72.3 56.4c-6.7 3.2-12.8 9.4-16.2 16.5l-2.6 5.6v356l2.2 4.7c3 6.6 10.4 14.1 16.6 16.9l5.2 2.4h357l5.2-2.4c6.2-2.8 13.6-10.3 16.6-16.9l2.2-4.7v-356l-2.6-5.5c-3.6-7.8-8-12.4-15.1-16l-6.1-3H77.5l-5.2 2.4zm52.2 164.7c5.7 1.6 10.4 5.5 12.7 10.6 2.5 5.7 1.9 7.3-3 7.3-3.3 0-4-.4-5.3-3.2-2.3-5.1-5.7-6.9-13-7-9.3-.2-13.9 2.6-13.9 8.3 0 2.9 3.8 4.7 16 8 12.5 3.2 17.3 5.7 20.1 10.3 3.3 5.5 1.9 13.6-3.2 18.3-5.6 5.1-20.8 7-30 3.8-7.4-2.6-12.9-9.4-12.9-16 0-2.3.4-2.5 4-2.5 3 0 4.2.5 4.6 1.7 2.5 7.7 6.3 9.6 18.1 9.1 7.5-.3 8.7-.6 10.4-2.7 2.6-3.2 2.1-6.9-1.2-9.4-1.5-1-6.9-3-12-4.3-11.8-3-17.7-6.1-20.7-10.5-5.3-7.7.5-19.4 10.9-21.9 5-1.2 13.9-1.1 18.4.1zm223.1 2.1c10.4 5.2 16.1 15.9 15.2 28.8-.9 11.7-7.5 21-17.7 25l-4.4 1.7 3.3 2.3c4.2 3 11.2 3.2 15.7.5 3.2-1.9 3.2-1.9 5.2.6 2.9 3.5 2.6 4.6-2.1 7-5.7 2.9-14.9 2.9-20.5.1-2.2-1.2-5.6-3.9-7.5-6.2-1.9-2.2-4.2-4-5.1-4-.9 0-4-.9-6.9-2-15-5.6-22.5-24.5-15.8-39.8 2.8-6.5 10.5-13.6 16.9-15.7 6.5-2.1 17.7-1.3 23.7 1.7zm-134.5 10.3c5.1 6.9 9.6 12.1 10 11.7.3-.4 4.5-6 9.3-12.5L241 221h10l-.2 28.7-.3 28.8-4.2.3-4.3.3-.2-21.8-.3-21.8-8.9 11.5c-4.9 6.3-9.2 11.8-9.5 12.2-.4.4-4.9-4.7-10.1-11.4l-9.5-12.1-.3 21.7-.2 21.6h-9v-58h9.8l9.3 12.5zm196-10.2c5.9 3.1 8.9 8.4 8.9 15.7 0 7.1-2.5 11.9-7.6 14.5-2.1 1.1-4.1 2.1-4.3 2.2-.1.1 2.9 5.1 6.8 11.1s7.1 11.2 7.1 11.5c0 .4-2.2.7-4.9.7h-4.9l-6.8-11-6.9-11.1-8.5.3-8.5.3-.3 10.7-.3 10.8H371v-58h16.8c15.7 0 17.2.2 21.3 2.3zm-233.1 13c8.7 4.5 13.4 17.8 10 28.2-2.8 8.5-11.2 14.5-20.5 14.5s-15.6-3.7-19.8-11.5c-2.7-5.1-3-17.3-.5-22 6-11.2 19.2-15.1 30.8-9.2zm114-.3c6.8 3.5 10.3 9.2 11.6 18.8l.7 5.2h-17.7c-19.5 0-19.9.2-15 5.9 5.1 6.1 16.2 6.4 20 .6 1.4-2.1 2.4-2.5 6.5-2.5h5l-1.7 3.2c-4 8-10.3 11.8-19.4 11.8-13.1 0-22.2-9.4-22.2-23 0-6.3 1.3-10.1 4.8-14.7 5.9-7.8 18-10.1 27.4-5.3z"/><path d="M323.8 231c-8 4.2-11.8 13.7-9.7 23.8 1.4 6.8 7.6 13.7 13.4 14.8 11 2 20.5-1.9 24.5-10.1 3.1-6.5 2.6-16.5-1.2-22.2-5.2-7.8-18.3-10.8-27-6.3zM379.4 230.3c-.3.8-.4 5.2-.2 9.8l.3 8.4h11.7c10.3 0 12-.2 14.5-2.1 2.1-1.6 2.9-3.1 3.1-6.2.6-8.7-3.6-11.2-18.8-11.2-7.5 0-10.2.3-10.6 1.3zM159.1 243.3c-6.7 3.4-9.1 13.9-4.9 21.2 3.2 5.5 8.9 7.6 15 5.5 5.8-2 8.8-6.6 8.8-13.5 0-5.8-2.8-11.1-7-13.2-3.2-1.6-8.8-1.6-11.9 0zM272.8 243.6c-2.3 1.2-5.8 5.9-5.8 7.9 0 .3 5.6.5 12.5.5s12.5-.2 12.5-.5c0-2-3.5-6.7-6-8-3.7-1.9-9.7-1.9-13.2.1z"/></svg>